<svg id="レイヤー_1" data-name="レイヤー 1" xmlns="http://www.w3.org/2000/svg" xmlns:xlink="http://www.w3.org/1999/xlink" viewBox="0 0 2560.15 1156"><defs><style>.cls-1{fill:none;}.cls-2{fill:#e6e6e6;}.cls-3{isolation:isolate;}.cls-4{clip-path:url(#clip-path);}.cls-5{fill:#787878;}.cls-6{clip-path:url(#clip-path-2);}.cls-7{fill:#8f8f8f;}.cls-8{fill:#8a8a8a;}.cls-9{fill:#737373;}.cls-10{clip-path:url(#clip-path-3);}.cls-11{fill:#858585;}.cls-12{fill:#919191;}.cls-13{clip-path:url(#clip-path-4);}.cls-14{fill:#7c7c7c;}.cls-15{fill:#818181;}.cls-16{fill:#d0d0d0;}.cls-17{clip-path:url(#clip-path-5);}.cls-18{clip-path:url(#clip-path-6);}.cls-19{clip-path:url(#clip-path-7);}.cls-20{fill:#8b8b8b;}.cls-21{clip-path:url(#clip-path-8);}.cls-22{clip-path:url(#clip-path-9);}.cls-23{clip-path:url(#clip-path-10);}.cls-24{fill:#969696;}.cls-25{clip-path:url(#clip-path-11);}.cls-26{clip-path:url(#clip-path-12);}.cls-27{fill:#adadad;}.cls-28{fill:#bebebe;}.cls-29{fill:gray;}.cls-30{clip-path:url(#clip-path-13);}.cls-31{fill:#b3b3b3;}.cls-32{fill:#a8a8a8;}.cls-33{fill:#a3a3a3;}.cls-34{fill:#9e9e9e;}.cls-35{fill:#999;}.cls-36{fill:#949494;}.cls-37{fill:#c5c5c5;}.cls-38{fill:#d5d5d5;}.cls-39{clip-path:url(#clip-path-14);}.cls-40{fill:#b8b8b8;}.cls-41{fill:#bdbdbd;}.cls-42{fill:#c2c2c2;}.cls-43{fill:#c7c7c7;}.cls-44{fill:#ccc;}</style><clipPath id="clip-path" transform="translate(0.41 -162.37)"><path class="cls-1" d="M850.11,1006.85,458.62,890.66a33.1,33.1,0,0,1-16.84-11.72L833.27,995.13A33.22,33.22,0,0,0,850.11,1006.85Z"/></clipPath><clipPath id="clip-path-2" transform="translate(0.41 -162.37)"><path class="cls-1" d="M416.08,714.81,807.58,831a33.64,33.64,0,0,0-21.51.94L394.58,715.75A33.62,33.62,0,0,1,416.08,714.81Z"/></clipPath><clipPath id="clip-path-3" transform="translate(0.41 -162.37)"><path class="cls-1" d="M771.36,841.68,379.87,725.49a40.89,40.89,0,0,1,14.71-9.74L786.07,831.94A40.76,40.76,0,0,0,771.36,841.68Z"/></clipPath><clipPath id="clip-path-4" transform="translate(0.41 -162.37)"><path class="cls-1" d="M763.29,905,371.8,788.79c-13.18-17-10.81-44.06,5.3-60.48L768.59,844.49C752.48,860.91,750.11,888,763.29,905Z"/></clipPath><clipPath id="clip-path-5" transform="translate(0.41 -162.37)"><path class="cls-1" d="M787.48,1073.72,396,957.53a32.59,32.59,0,0,1-10.48-5.36L777,1068.36A32.59,32.59,0,0,0,787.48,1073.72Z"/></clipPath><clipPath id="clip-path-6" transform="translate(0.41 -162.37)"><path class="cls-1" d="M334.7,803.93,726.19,920.12a33.58,33.58,0,0,0-21.46,1L313.24,804.9A33.58,33.58,0,0,1,334.7,803.93Z"/></clipPath><clipPath id="clip-path-7" transform="translate(0.41 -162.37)"><path class="cls-1" d="M683.86,938.63,292.37,822.45a42.73,42.73,0,0,1,20.87-17.55L704.73,921.09A42.76,42.76,0,0,0,683.86,938.63Z"/></clipPath><clipPath id="clip-path-8" transform="translate(0.41 -162.37)"><path class="cls-1" d="M689,1001.11,297.46,884.92c-16.58-12.68-19.83-39.12-7.25-59L681.7,942.05C669.12,962,672.37,988.43,689,1001.11Z"/></clipPath><clipPath id="clip-path-9" transform="translate(0.41 -162.37)"><path class="cls-1" d="M267,882.39,658.48,998.58a33.37,33.37,0,0,0-21.37.93L245.62,883.33A33.3,33.3,0,0,1,267,882.39Z"/></clipPath><clipPath id="clip-path-10" transform="translate(0.41 -162.37)"><path class="cls-1" d="M633.42,1001.13,241.93,884.94a37.16,37.16,0,0,1,3.69-1.61L637.11,999.51C635.88,1000,634.64,1000.52,633.42,1001.13Z"/></clipPath><clipPath id="clip-path-11" transform="translate(0.41 -162.37)"><path class="cls-1" d="M531.2,1137.26,139.71,1021.07c-10.41-3.09-19.17-11.43-23.19-23.68L508,1113.57C512,1125.82,520.79,1134.17,531.2,1137.26Z"/></clipPath><clipPath id="clip-path-12" transform="translate(0.41 -162.37)"><path class="cls-1" d="M506.79,1109.88,115.3,993.69c-7.06-21.48,3.09-46.86,22.68-56.68L529.47,1053.2C509.88,1063,499.73,1088.39,506.79,1109.88Z"/></clipPath><clipPath id="clip-path-13" transform="translate(0.41 -162.37)"><path class="cls-1" d="M331.46,960.34l.26-1.87c.18-1.23,1.57-2.52,4.2-3.86l-.27,1.87C333,957.82,331.64,959.11,331.46,960.34Z"/></clipPath><clipPath id="clip-path-14" transform="translate(0.41 -162.37)"><path class="cls-1" d="M322.86,958.88l.26-1.87q-.69,4.89,15.58,9.86a99.14,99.14,0,0,0,10.56,2.63,67.72,67.72,0,0,0,11.25,1.22,36,36,0,0,0,17.26-3.64l-.27,1.86a35.79,35.79,0,0,1-17.26,3.64A67.66,67.66,0,0,1,349,971.37a99.14,99.14,0,0,1-10.56-2.63Q322.16,963.76,322.86,958.88Z"/></clipPath></defs><title>dockerRevers1</title><path class="cls-2" d="M1674.08,175.69c-35.42-17.76-84.36-17.76-119.78,0L-.41,955.3v363.07H2559.74V619.81Z" transform="translate(0.41 -162.37)"/><g class="cls-3"><g class="cls-3"><g class="cls-4"><g class="cls-3"><path class="cls-5" d="M850.11,1006.85,458.62,890.66a33.1,33.1,0,0,1-16.84-11.72L833.27,995.13a33.22,33.22,0,0,0,16.84,11.72" transform="translate(0.41 -162.37)"/></g></g></g><g class="cls-3"><g class="cls-6"><g class="cls-3"><path class="cls-7" d="M786.07,831.94,394.58,715.75A34.14,34.14,0,0,1,412.66,714L804.15,830.18a33.94,33.94,0,0,0-18.08,1.76" transform="translate(0.41 -162.37)"/><path class="cls-8" d="M804.15,830.18,412.66,714a30.93,30.93,0,0,1,3.42.82L807.58,831a31.65,31.65,0,0,0-3.43-.82" transform="translate(0.41 -162.37)"/></g></g></g><polygon class="cls-9" points="833.68 832.76 442.19 716.57 372.21 626.42 763.7 742.61 833.68 832.76"/><g class="cls-3"><g class="cls-10"><g class="cls-3"><path class="cls-11" d="M771.36,841.68,379.87,725.49l.94-.93L772.3,840.75c-.31.3-.63.61-.94.93" transform="translate(0.41 -162.37)"/><path class="cls-8" d="M772.3,840.75,380.81,724.56a42.5,42.5,0,0,1,7.48-5.76L779.79,835a42.19,42.19,0,0,0-7.49,5.76" transform="translate(0.41 -162.37)"/><path class="cls-7" d="M779.79,835,388.29,718.8a38.3,38.3,0,0,1,6.29-3L786.07,831.94a37.82,37.82,0,0,0-6.28,3" transform="translate(0.41 -162.37)"/></g></g></g><polygon class="cls-12" points="769 682.12 377.51 565.94 380.28 563.12 771.77 679.31 769 682.12"/><g class="cls-3"><g class="cls-13"><g class="cls-3"><path class="cls-5" d="M763.29,905,371.8,788.79c-8.69-11.2-10.62-26.79-6.31-40.81L757,864.16c-4.31,14-2.38,29.62,6.31,40.82" transform="translate(0.41 -162.37)"/><path class="cls-14" d="M757,864.16,365.49,748a49.43,49.43,0,0,1,3.31-8.14L760.29,856a49.79,49.79,0,0,0-3.31,8.14" transform="translate(0.41 -162.37)"/><path class="cls-15" d="M760.29,856,368.8,739.84a48.65,48.65,0,0,1,4.05-6.54L764.34,849.49a48.54,48.54,0,0,0-4.05,6.53" transform="translate(0.41 -162.37)"/><path class="cls-11" d="M764.34,849.49,372.85,733.3a46.7,46.7,0,0,1,4.25-5L768.59,844.49a47.81,47.81,0,0,0-4.25,5" transform="translate(0.41 -162.37)"/></g></g></g><path class="cls-16" d="M786.07,831.94c13.71-5.16,28.8-1.53,38.35,10.77l70,90.15c13.19,17,10.81,44.07-5.3,60.49l-2.78,2.81a40.8,40.8,0,0,1-14.7,9.75c-13.71,5.16-28.8,1.52-38.34-10.78l-70-90.15c-13.18-17-10.81-44.07,5.3-60.49l2.77-2.81A40.76,40.76,0,0,1,786.07,831.94Z" transform="translate(0.41 -162.37)"/></g><g class="cls-3"><g class="cls-3"><g class="cls-17"><g class="cls-3"><path class="cls-5" d="M787.48,1073.72,396,957.53a32.59,32.59,0,0,1-10.48-5.36L777,1068.36a32.59,32.59,0,0,0,10.48,5.36" transform="translate(0.41 -162.37)"/></g></g></g><polygon class="cls-9" points="777.41 905.99 385.92 789.8 297.88 722.55 689.37 838.73 777.41 905.99"/><g class="cls-3"><g class="cls-18"><g class="cls-3"><path class="cls-7" d="M704.73,921.09,313.24,804.9a34,34,0,0,1,18.1-1.77L722.83,919.32a34,34,0,0,0-18.1,1.77" transform="translate(0.41 -162.37)"/><path class="cls-8" d="M722.83,919.32,331.34,803.13a32.79,32.79,0,0,1,3.36.8L726.19,920.12a30.36,30.36,0,0,0-3.36-.8" transform="translate(0.41 -162.37)"/></g></g></g><g class="cls-3"><g class="cls-19"><g class="cls-3"><path class="cls-15" d="M683.86,938.63,292.37,822.45c.63-1,1.29-2,2-2.9L685.83,935.74c-.68.93-1.34,1.89-2,2.89" transform="translate(0.41 -162.37)"/><path class="cls-11" d="M685.83,935.74,294.34,819.55a46.19,46.19,0,0,1,5.13-5.86L691,929.88a45.51,45.51,0,0,0-5.13,5.86" transform="translate(0.41 -162.37)"/><path class="cls-8" d="M691,929.88,299.47,813.69a42.54,42.54,0,0,1,7.44-5.72L698.4,924.16a42.43,42.43,0,0,0-7.44,5.72" transform="translate(0.41 -162.37)"/><path class="cls-7" d="M698.4,924.16,306.91,808a38.81,38.81,0,0,1,6.33-3.07L704.73,921.09a38.81,38.81,0,0,0-6.33,3.07" transform="translate(0.41 -162.37)"/></g></g></g><polygon class="cls-20" points="682.11 779.68 290.62 663.5 292.78 660.08 684.27 776.26 682.11 779.68"/><g class="cls-3"><g class="cls-21"><g class="cls-3"><path class="cls-5" d="M689,1001.11,297.46,884.92c-13.43-10.27-18.12-29.58-12.72-47.14L676.23,954c-5.4,17.57-.71,36.87,12.72,47.15" transform="translate(0.41 -162.37)"/><path class="cls-14" d="M676.23,954,284.74,837.78a49.21,49.21,0,0,1,3.31-8.15l391.5,116.19a49.51,49.51,0,0,0-3.32,8.14" transform="translate(0.41 -162.37)"/><path class="cls-15" d="M679.55,945.82,288.05,829.63c.66-1.28,1.38-2.53,2.16-3.76L681.7,942.05c-.78,1.23-1.5,2.49-2.15,3.77" transform="translate(0.41 -162.37)"/></g></g></g><path class="cls-16" d="M704.73,921.09c10.7-4,22.48-2.84,31.95,4.39l88,67.26c16.59,12.67,19.85,39.11,7.27,59l-2.17,3.43A42.81,42.81,0,0,1,809,1072.75c-10.71,4-22.48,2.84-32-4.39l-88-67.25c-16.58-12.68-19.83-39.12-7.25-59.06l2.16-3.42A42.76,42.76,0,0,1,704.73,921.09Z" transform="translate(0.41 -162.37)"/></g><g class="cls-3"><g class="cls-3"><g class="cls-22"><g class="cls-3"><path class="cls-7" d="M637.11,999.51,245.62,883.33a33.68,33.68,0,0,1,17.92-1.76L655,997.76a33.78,33.78,0,0,0-17.92,1.75" transform="translate(0.41 -162.37)"/><path class="cls-8" d="M655,997.76,263.54,881.57a33.29,33.29,0,0,1,3.45.82L658.48,998.58a30.91,30.91,0,0,0-3.45-.82" transform="translate(0.41 -162.37)"/></g></g></g><g class="cls-3"><g class="cls-23"><g class="cls-3"><path class="cls-7" d="M633.42,1001.13,241.93,884.94a37.16,37.16,0,0,1,3.69-1.61L637.11,999.51c-1.23.47-2.47,1-3.69,1.62" transform="translate(0.41 -162.37)"/></g></g></g><polygon class="cls-24" points="529.89 890.83 138.4 774.64 242.34 722.57 633.83 838.76 529.89 890.83"/><g class="cls-3"><g class="cls-25"><g class="cls-3"><path class="cls-5" d="M531.2,1137.26,139.71,1021.07c-10.41-3.09-19.17-11.43-23.19-23.68L508,1113.57c4,12.25,12.78,20.6,23.19,23.69" transform="translate(0.41 -162.37)"/></g></g></g><polygon class="cls-9" points="508.42 951.2 116.93 835.01 115.72 831.32 507.2 947.51 508.42 951.2"/><g class="cls-3"><g class="cls-26"><g class="cls-3"><path class="cls-5" d="M506.79,1109.88,115.3,993.69a47.7,47.7,0,0,1,0-28.79l391.49,116.19a47.7,47.7,0,0,0,0,28.79" transform="translate(0.41 -162.37)"/><path class="cls-14" d="M506.75,1081.09,115.26,964.9a50.77,50.77,0,0,1,3.35-8.22L510.1,1072.86a51.25,51.25,0,0,0-3.35,8.23" transform="translate(0.41 -162.37)"/><path class="cls-15" d="M510.1,1072.86,118.61,956.68a48.28,48.28,0,0,1,4.08-6.59l391.49,116.18a49.53,49.53,0,0,0-4.08,6.59" transform="translate(0.41 -162.37)"/><path class="cls-11" d="M514.18,1066.27,122.69,950.09a45.36,45.36,0,0,1,5.12-5.85L519.3,1060.42a47.56,47.56,0,0,0-5.12,5.85" transform="translate(0.41 -162.37)"/><path class="cls-8" d="M519.3,1060.42,127.81,944.24a42.51,42.51,0,0,1,7.47-5.74l391.49,116.19a42.45,42.45,0,0,0-7.47,5.73" transform="translate(0.41 -162.37)"/><path class="cls-7" d="M526.77,1054.69,135.28,938.5c.88-.53,1.78-1,2.7-1.49L529.47,1053.2c-.92.46-1.82,1-2.7,1.49" transform="translate(0.41 -162.37)"/></g></g></g><path class="cls-16" d="M637.11,999.51c18.54-7,37.95,2.61,44.56,22.75l1.22,3.7c7.06,21.48-3.1,46.87-22.68,56.68l-104,52.07c-1.22.61-2.45,1.15-3.68,1.62-18.54,7-37.94-2.61-44.56-22.76l-1.22-3.69c-7.06-21.49,3.09-46.86,22.68-56.68l103.95-52.07C634.64,1000.52,635.88,1000,637.11,999.51Z" transform="translate(0.41 -162.37)"/></g><g class="cls-3"><polygon class="cls-27" points="258.42 779.27 258.16 781.14 250.77 778.88 251.03 777.01 258.42 779.27"/><polygon class="cls-28" points="288.25 764 287.99 765.87 258.16 781.14 258.42 779.27 288.25 764"/><polygon class="cls-28" points="357.44 781.43 357.18 783.29 336.07 794.11 336.33 792.24 357.44 781.43"/><polygon class="cls-29" points="290.84 789.17 290.58 791.04 287.99 765.87 288.25 764 290.84 789.17"/><g class="cls-3"><g class="cls-30"><g class="cls-3"><path class="cls-31" d="M335.92,954.61l-.27,1.87-.1,0,.26-1.87.11,0" transform="translate(0.41 -162.37)"/><path class="cls-27" d="M335.81,954.66l-.26,1.87c-.57.3-1.09.59-1.54.88l.26-1.86c.46-.3,1-.59,1.54-.89" transform="translate(0.41 -162.37)"/><path class="cls-32" d="M334.27,955.55l-.26,1.86a11.59,11.59,0,0,0-1,.73l.26-1.87a11,11,0,0,1,1-.72" transform="translate(0.41 -162.37)"/><path class="cls-33" d="M333.26,956.27l-.26,1.87a5.84,5.84,0,0,0-.67.62l.26-1.87a8.31,8.31,0,0,1,.67-.62" transform="translate(0.41 -162.37)"/><path class="cls-34" d="M332.59,956.89l-.26,1.87a4.35,4.35,0,0,0-.45.55l.26-1.87a6.83,6.83,0,0,1,.45-.55" transform="translate(0.41 -162.37)"/><path class="cls-35" d="M332.14,957.44l-.26,1.87a3.14,3.14,0,0,0-.27.51l.26-1.86a3.71,3.71,0,0,1,.27-.52" transform="translate(0.41 -162.37)"/><path class="cls-36" d="M331.87,958l-.26,1.86a1.87,1.87,0,0,0-.14.5l.26-1.87a1.81,1.81,0,0,1,.14-.49" transform="translate(0.41 -162.37)"/><path class="cls-7" d="M331.73,958.45l-.26,1.87v0l.26-1.87v0" transform="translate(0.41 -162.37)"/></g></g></g><polygon class="cls-37" points="285.4 759.42 296.41 762.78 298.85 786.57 327.03 772.14 334.41 774.39 300.06 791.99 290.84 789.17 288.25 764 258.42 779.27 251.03 777.01 285.4 759.42"/><polygon class="cls-28" points="334.41 774.39 334.15 776.26 299.8 793.86 300.06 791.99 334.41 774.39"/><polygon class="cls-27" points="300.06 791.99 299.8 793.86 290.58 791.04 290.84 789.17 300.06 791.99"/><polygon class="cls-28" points="398.9 794.09 398.64 795.96 377.92 806.57 378.18 804.71 398.9 794.09"/><polygon class="cls-29" points="413.66 812.66 413.4 814.52 408.55 798.99 408.81 797.12 413.66 812.66"/><polygon class="cls-38" points="462.45 813.51 462.19 815.37 422.87 817.25 423.13 815.38 462.45 813.51"/><path class="cls-37" d="M349.08,941.37,357,943.8l-21.11,10.81q-5.52,2.82-3.81,5.33c1.15,1.68,4.54,3.37,10.17,5.1a68.33,68.33,0,0,0,7.25,1.8,43.2,43.2,0,0,0,7.69.81,25.43,25.43,0,0,0,12.1-2.74L390.55,954l7.94,2.42-20.72,10.62a36,36,0,0,1-17.26,3.64,67.72,67.72,0,0,1-11.25-1.22,99.14,99.14,0,0,1-10.56-2.63Q314,959.33,328.36,952Z" transform="translate(0.41 -162.37)"/><g class="cls-3"><g class="cls-39"><g class="cls-3"><path class="cls-31" d="M377.77,967.08l-.27,1.86q-1,.54-2.13,1l.27-1.86q1.08-.47,2.13-1" transform="translate(0.41 -162.37)"/><path class="cls-40" d="M375.64,968.07l-.27,1.86c-.7.3-1.41.57-2.14.81l.26-1.86c.73-.25,1.44-.52,2.15-.81" transform="translate(0.41 -162.37)"/><path class="cls-41" d="M373.49,968.88l-.26,1.86c-.7.24-1.42.45-2.15.64l.27-1.87c.72-.19,1.44-.4,2.14-.63" transform="translate(0.41 -162.37)"/><path class="cls-42" d="M371.35,969.51l-.27,1.87c-.75.2-1.51.37-2.29.52l.27-1.87c.77-.15,1.54-.32,2.29-.52" transform="translate(0.41 -162.37)"/><path class="cls-43" d="M369.06,970l-.27,1.87c-.91.17-1.85.31-2.81.42l.26-1.86c1-.11,1.9-.25,2.82-.43" transform="translate(0.41 -162.37)"/><path class="cls-44" d="M366.24,970.46l-.26,1.86a42.93,42.93,0,0,1-5.74.26q-1.15,0-2.34-.09l.27-1.87c.79,0,1.57.08,2.34.1a44.6,44.6,0,0,0,5.73-.26" transform="translate(0.41 -162.37)"/><path class="cls-43" d="M358.17,970.62l-.27,1.87c-.85,0-1.71-.12-2.58-.2l.26-1.87c.87.09,1.73.15,2.59.2" transform="translate(0.41 -162.37)"/><path class="cls-42" d="M355.58,970.42l-.26,1.87-2.07-.24.26-1.87,2.07.24" transform="translate(0.41 -162.37)"/><path class="cls-41" d="M353.51,970.18l-.26,1.87-1.94-.28.26-1.87c.66.1,1.3.2,1.94.28" transform="translate(0.41 -162.37)"/><path class="cls-40" d="M351.57,969.9l-.26,1.87-1.94-.33.26-1.87,1.94.33" transform="translate(0.41 -162.37)"/><path class="cls-31" d="M349.63,969.57l-.26,1.87-.37-.07-1.65-.33.26-1.87,1.65.33.37.07" transform="translate(0.41 -162.37)"/><path class="cls-27" d="M347.61,969.17l-.26,1.87-2.17-.48.27-1.86c.72.17,1.44.32,2.16.47" transform="translate(0.41 -162.37)"/><path class="cls-32" d="M345.45,968.7l-.27,1.86c-.78-.18-1.57-.38-2.37-.58l.26-1.87c.8.21,1.59.4,2.38.59" transform="translate(0.41 -162.37)"/><path class="cls-33" d="M343.07,968.11l-.26,1.87-2.69-.74.26-1.87c.91.26,1.81.51,2.69.74" transform="translate(0.41 -162.37)"/><path class="cls-34" d="M340.38,967.37l-.26,1.87-1.68-.5-1.35-.43.26-1.86,1.35.42,1.68.5" transform="translate(0.41 -162.37)"/><path class="cls-35" d="M337.35,966.45l-.26,1.86c-1-.3-1.88-.61-2.74-.92l.26-1.86c.86.3,1.78.61,2.74.92" transform="translate(0.41 -162.37)"/><path class="cls-36" d="M334.61,965.53l-.26,1.86c-.83-.29-1.62-.59-2.37-.88l.26-1.87c.75.3,1.54.59,2.37.89" transform="translate(0.41 -162.37)"/><path class="cls-7" d="M332.24,964.64l-.26,1.87c-.76-.31-1.47-.61-2.14-.91l.26-1.87c.67.3,1.38.61,2.14.91" transform="translate(0.41 -162.37)"/><path class="cls-8" d="M330.1,963.73l-.26,1.87c-.76-.35-1.46-.69-2.1-1l.26-1.86c.64.34,1.34.69,2.1,1" transform="translate(0.41 -162.37)"/><path class="cls-11" d="M328,962.7l-.26,1.86q-5.28-2.85-4.88-5.68l.26-1.87c-.27,1.89,1.36,3.78,4.88,5.69" transform="translate(0.41 -162.37)"/></g></g></g><polygon class="cls-38" points="415.31 815.44 415.05 817.3 382.35 819.08 382.61 817.21 415.31 815.44"/><polygon class="cls-27" points="382.61 817.21 382.35 819.08 373.68 816.43 373.94 814.56 382.61 817.21"/><polygon class="cls-29" points="418.78 828.26 418.52 830.13 415.05 817.3 415.31 815.44 418.78 828.26"/><polygon class="cls-27" points="428.05 831.09 427.79 832.96 418.52 830.13 418.78 828.26 428.05 831.09"/><polygon class="cls-37" points="408.81 797.12 418.04 799.94 421.47 812.6 453.74 810.85 462.45 813.51 423.13 815.38 428.05 831.09 418.78 828.26 415.31 815.44 382.61 817.21 373.94 814.56 413.66 812.66 408.81 797.12"/></g><g class="cls-3"><polygon class="cls-27" points="484.76 823.34 484.5 825.21 461.66 818.23 461.92 816.36 484.76 823.34"/><polygon class="cls-27" points="515.55 832.75 515.29 834.62 492.44 827.64 492.71 825.77 515.55 832.75"/><polygon class="cls-28" points="519.24 830.86 518.98 832.72 515.29 834.62 515.55 832.75 519.24 830.86"/><polygon class="cls-27" points="462.04 841.48 461.78 843.34 453.84 840.92 454.1 839.05 462.04 841.48"/><polygon class="cls-28" points="492.71 825.77 492.44 827.64 461.78 843.34 462.04 841.48 492.71 825.77"/><polygon class="cls-37" points="465.61 814.47 519.24 830.86 515.55 832.75 492.71 825.77 462.04 841.48 454.1 839.05 484.76 823.34 461.92 816.36 465.61 814.47"/></g></svg>