<svg id="レイヤー_1" data-name="レイヤー 1" xmlns="http://www.w3.org/2000/svg" xmlns:xlink="http://www.w3.org/1999/xlink" viewBox="0 0 2560.15 1156"><defs><style>.cls-1{fill:none;}.cls-2{fill:#3fa9f5;}.cls-3{isolation:isolate;}.cls-4{clip-path:url(#clip-path);}.cls-5{fill:#8f8f8f;}.cls-6{fill:#8a8a8a;}.cls-7{clip-path:url(#clip-path-2);}.cls-8{fill:#979797;}.cls-9{clip-path:url(#clip-path-3);}.cls-10{fill:#787878;}.cls-11{fill:#737373;}.cls-12{clip-path:url(#clip-path-4);}.cls-13{fill:#7c7c7c;}.cls-14{fill:#818181;}.cls-15{fill:#858585;}.cls-16{fill:#d0d0d0;}.cls-17{fill:#adadad;}.cls-18{fill:#bfbfbf;}.cls-19{fill:gray;}.cls-20{clip-path:url(#clip-path-5);}.cls-21{fill:#b3b3b3;}.cls-22{fill:#a8a8a8;}.cls-23{fill:#a3a3a3;}.cls-24{fill:#9e9e9e;}.cls-25{fill:#999;}.cls-26{fill:#949494;}.cls-27{fill:#c5c5c5;}.cls-28{fill:#d5d5d5;}.cls-29{clip-path:url(#clip-path-6);}.cls-30{fill:#b8b8b8;}.cls-31{fill:#bdbdbd;}.cls-32{fill:#c2c2c2;}.cls-33{fill:#c7c7c7;}.cls-34{fill:#ccc;}</style><clipPath id="clip-path" transform="translate(0.41 -0.37)"><path class="cls-1" d="M1595,738.67l391.49,116.18a33.33,33.33,0,0,0-21.38.94L1573.59,739.6A33.33,33.33,0,0,1,1595,738.67Z"/></clipPath><clipPath id="clip-path-2" transform="translate(0.41 -0.37)"><path class="cls-1" d="M1961.52,857.34,1570,741.15c1.18-.58,2.37-1.1,3.56-1.55l391.49,116.19A38,38,0,0,0,1961.52,857.34Z"/></clipPath><clipPath id="clip-path-3" transform="translate(0.41 -0.37)"><path class="cls-1" d="M1859,993.14,1467.54,877c-10.46-3.1-19.23-11.5-23.24-23.82l391.49,116.19C1839.8,981.64,1848.57,990,1859,993.14Z"/></clipPath><clipPath id="clip-path-4" transform="translate(0.41 -0.37)"><path class="cls-1" d="M1834.59,965.61,1443.1,849.43c-7-21.52,3.24-46.86,22.86-56.6L1857.45,909C1837.83,918.76,1827.6,944.1,1834.59,965.61Z"/></clipPath><clipPath id="clip-path-5" transform="translate(0.41 -0.37)"><path class="cls-1" d="M1659.51,816.29l.26-1.86q.27-1.86,4.24-3.87l-.26,1.86C1661.1,813.77,1659.68,815.06,1659.51,816.29Z"/></clipPath><clipPath id="clip-path-6" transform="translate(0.41 -0.37)"><path class="cls-1" d="M1650.9,814.84l.27-1.87q-.69,4.88,15.5,9.84a100.94,100.94,0,0,0,10.65,2.66,68.57,68.57,0,0,0,11.15,1.21,36.27,36.27,0,0,0,17.32-3.61l-.26,1.86a36.27,36.27,0,0,1-17.32,3.62,68.63,68.63,0,0,1-11.15-1.22,96.26,96.26,0,0,1-10.65-2.66Q1650.23,819.71,1650.9,814.84Z"/></clipPath></defs><title>docker3</title><path class="cls-2" d="M885.25,1143.05c35.42,17.76,84.36,17.76,119.78,0L2559.74,363.44V.37H-.41V698.94Z" transform="translate(0.41 -0.37)"/><g class="cls-3"><g class="cls-3"><g class="cls-4"><g class="cls-3"><path class="cls-5" d="M1965.08,855.79,1573.59,739.6a33.7,33.7,0,0,1,17.93-1.75L1983,854a33.72,33.72,0,0,0-17.93,1.76" transform="translate(0.41 -0.37)"/><path class="cls-6" d="M1983,854,1591.52,737.85a30.91,30.91,0,0,1,3.45.82l391.49,116.18A33.29,33.29,0,0,0,1983,854" transform="translate(0.41 -0.37)"/></g></g></g><g class="cls-3"><g class="cls-7"><g class="cls-3"><path class="cls-5" d="M1961.52,857.34,1570,741.15c1.18-.58,2.37-1.1,3.56-1.55l391.49,116.19a38,38,0,0,0-3.56,1.55" transform="translate(0.41 -0.37)"/></g></g></g><polygon class="cls-8" points="1857.86 908.65 1466.37 792.46 1570.44 740.78 1961.93 856.97 1857.86 908.65"/><g class="cls-3"><g class="cls-9"><g class="cls-3"><path class="cls-10" d="M1859,993.14,1467.54,877c-10.46-3.1-19.23-11.5-23.24-23.82l391.49,116.19c4,12.32,12.78,20.72,23.24,23.82" transform="translate(0.41 -0.37)"/></g></g></g><polygon class="cls-11" points="1836.2 968.95 1444.71 852.76 1443.51 849.06 1835 965.24 1836.2 968.95"/><g class="cls-3"><g class="cls-12"><g class="cls-3"><path class="cls-10" d="M1834.59,965.61,1443.1,849.43a47.71,47.71,0,0,1,0-28.65L1834.6,937a47.68,47.68,0,0,0,0,28.64" transform="translate(0.41 -0.37)"/><path class="cls-13" d="M1834.6,937,1443.11,820.78a49.48,49.48,0,0,1,3.35-8.23L1838,928.74a49.48,49.48,0,0,0-3.35,8.23" transform="translate(0.41 -0.37)"/><path class="cls-14" d="M1838,928.74,1446.46,812.55a48.73,48.73,0,0,1,4.07-6.58L1842,922.16a47.8,47.8,0,0,0-4.08,6.58" transform="translate(0.41 -0.37)"/><path class="cls-15" d="M1842,922.16,1450.53,806a46.14,46.14,0,0,1,5.12-5.85l391.49,116.19a45.28,45.28,0,0,0-5.11,5.85" transform="translate(0.41 -0.37)"/><path class="cls-6" d="M1847.14,916.31,1455.65,800.12a42.62,42.62,0,0,1,7.45-5.72l391.5,116.18a42.38,42.38,0,0,0-7.46,5.73" transform="translate(0.41 -0.37)"/><path class="cls-5" d="M1854.6,910.58,1463.1,794.4c.93-.56,1.88-1.09,2.86-1.57L1857.45,909q-1.47.72-2.85,1.56" transform="translate(0.41 -0.37)"/></g></g></g><path class="cls-16" d="M1965.08,855.79c18.6-7,38.05,2.65,44.62,22.89l1.2,3.7c7,21.52-3.24,46.86-22.86,56.6L1884,990.65a35.53,35.53,0,0,1-3.56,1.55c-18.6,7-38-2.65-44.62-22.88l-1.2-3.71c-7-21.51,3.24-46.85,22.86-56.59l104.07-51.68A38,38,0,0,1,1965.08,855.79Z" transform="translate(0.41 -0.37)"/></g><g class="cls-3"><polygon class="cls-17" points="1586.56 797.13 1586.29 799 1578.92 796.73 1579.18 794.87 1586.56 797.13"/><polygon class="cls-18" points="1616.57 781.92 1616.31 783.78 1586.29 799 1586.56 797.13 1616.57 781.92"/><polygon class="cls-18" points="1685.67 799.42 1685.41 801.28 1664.16 812.05 1664.42 810.18 1685.67 799.42"/><polygon class="cls-19" points="1618.9 807.06 1618.64 808.93 1616.31 783.78 1616.57 781.92 1618.9 807.06"/><g class="cls-3"><g class="cls-20"><g class="cls-3"><path class="cls-21" d="M1664,810.56l-.26,1.86-.2.11.26-1.87.2-.1" transform="translate(0.41 -0.37)"/><path class="cls-17" d="M1663.81,810.66l-.26,1.87a17.13,17.13,0,0,0-1.52.87l.26-1.87a17.13,17.13,0,0,1,1.52-.87" transform="translate(0.41 -0.37)"/><path class="cls-22" d="M1662.29,811.53l-.26,1.87a10.82,10.82,0,0,0-1,.71l.26-1.87c.3-.23.63-.47,1-.71" transform="translate(0.41 -0.37)"/><path class="cls-23" d="M1661.29,812.24l-.26,1.87a8.06,8.06,0,0,0-.66.61l.26-1.86a6.65,6.65,0,0,1,.66-.62" transform="translate(0.41 -0.37)"/><path class="cls-24" d="M1660.63,812.86l-.26,1.86a5,5,0,0,0-.44.55l.26-1.86a3.66,3.66,0,0,1,.44-.55" transform="translate(0.41 -0.37)"/><path class="cls-25" d="M1660.19,813.41l-.26,1.86a2.58,2.58,0,0,0-.28.51l.26-1.87a3.14,3.14,0,0,1,.28-.5" transform="translate(0.41 -0.37)"/><path class="cls-26" d="M1659.91,813.91l-.26,1.87a3,3,0,0,0-.14.49l.27-1.87a2.38,2.38,0,0,1,.13-.49" transform="translate(0.41 -0.37)"/><path class="cls-5" d="M1659.78,814.4l-.27,1.87v0l.26-1.86v0" transform="translate(0.41 -0.37)"/></g></g></g><polygon class="cls-27" points="1613.77 777.34 1624.76 780.71 1626.96 804.48 1655.33 790.1 1662.7 792.36 1628.12 809.89 1618.9 807.06 1616.57 781.92 1586.56 797.13 1579.18 794.87 1613.77 777.34"/><polygon class="cls-18" points="1662.7 792.36 1662.43 794.23 1627.85 811.76 1628.12 809.89 1662.7 792.36"/><polygon class="cls-17" points="1628.12 809.89 1627.85 811.76 1618.64 808.93 1618.9 807.06 1628.12 809.89"/><polygon class="cls-18" points="1727.06 812.12 1726.8 813.99 1705.94 824.56 1706.2 822.7 1727.06 812.12"/><polygon class="cls-19" points="1741.64 830.68 1741.38 832.55 1736.68 817.03 1736.94 815.16 1741.64 830.68"/><polygon class="cls-28" points="1790.49 831.6 1790.22 833.46 1750.84 835.28 1751.1 833.42 1790.49 831.6"/><path class="cls-27" d="M1677.34,797.35l7.92,2.44L1664,810.56q-5.57,2.81-3.86,5.32t10.13,5.1a69.38,69.38,0,0,0,7.29,1.83,45.44,45.44,0,0,0,7.64.8,25.7,25.7,0,0,0,12.15-2.72l21.36-10.83,7.93,2.43-20.86,10.58a36.27,36.27,0,0,1-17.32,3.61,68.57,68.57,0,0,1-11.15-1.21,100.94,100.94,0,0,1-10.65-2.66q-24.63-7.57-10.2-14.88Z" transform="translate(0.41 -0.37)"/><g class="cls-3"><g class="cls-29"><g class="cls-3"><path class="cls-21" d="M1705.79,823.07l-.26,1.86c-.66.34-1.34.65-2,.94l.27-1.87c.69-.29,1.36-.6,2-.93" transform="translate(0.41 -0.37)"/><path class="cls-30" d="M1703.77,824l-.27,1.87c-.71.3-1.44.57-2.18.82l.26-1.87c.75-.24,1.47-.52,2.19-.82" transform="translate(0.41 -0.37)"/><path class="cls-31" d="M1701.58,824.82l-.26,1.87c-.71.24-1.43.45-2.16.65l.26-1.87c.73-.19,1.46-.41,2.16-.65" transform="translate(0.41 -0.37)"/><path class="cls-32" d="M1699.42,825.47l-.26,1.87c-.76.19-1.53.37-2.31.52l.26-1.87c.79-.15,1.55-.32,2.31-.52" transform="translate(0.41 -0.37)"/><path class="cls-33" d="M1697.11,826l-.26,1.87c-.93.17-1.87.32-2.84.43l.26-1.87c1-.11,1.92-.25,2.84-.43" transform="translate(0.41 -0.37)"/><path class="cls-34" d="M1694.27,826.42l-.26,1.87a45.62,45.62,0,0,1-5.8.26l-2.25-.09.26-1.87,2.25.09a43.84,43.84,0,0,0,5.8-.26" transform="translate(0.41 -0.37)"/><path class="cls-33" d="M1686.22,826.59l-.26,1.87c-.85-.05-1.72-.12-2.59-.21l.26-1.87c.87.09,1.74.16,2.59.21" transform="translate(0.41 -0.37)"/><path class="cls-32" d="M1683.63,826.38l-.26,1.87-2.07-.24.27-1.86c.69.09,1.38.17,2.06.23" transform="translate(0.41 -0.37)"/><path class="cls-31" d="M1681.57,826.15l-.27,1.86c-.64-.08-1.28-.17-1.93-.28l.26-1.86,1.94.28" transform="translate(0.41 -0.37)"/><path class="cls-30" d="M1679.63,825.87l-.26,1.86-1.95-.33.27-1.87,1.94.34" transform="translate(0.41 -0.37)"/><path class="cls-21" d="M1677.69,825.53l-.27,1.87-.36-.07-1.65-.32.26-1.87,1.65.33.37.06" transform="translate(0.41 -0.37)"/><path class="cls-17" d="M1675.67,825.14l-.26,1.87-2.15-.48.26-1.87,2.15.48" transform="translate(0.41 -0.37)"/><path class="cls-22" d="M1673.52,824.66l-.26,1.87c-.78-.18-1.57-.38-2.36-.58l.26-1.87c.79.21,1.58.4,2.36.58" transform="translate(0.41 -0.37)"/><path class="cls-23" d="M1671.16,824.08l-.26,1.87c-.89-.23-1.78-.48-2.68-.74l.26-1.87c.9.26,1.8.51,2.68.74" transform="translate(0.41 -0.37)"/><path class="cls-24" d="M1668.48,823.34l-.26,1.87-1.81-.54-1.22-.38.27-1.86,1.21.38,1.81.53" transform="translate(0.41 -0.37)"/><path class="cls-25" d="M1665.46,822.43l-.27,1.86c-1-.31-1.88-.61-2.75-.92l.27-1.87c.86.31,1.78.62,2.75.93" transform="translate(0.41 -0.37)"/><path class="cls-26" d="M1662.71,821.5l-.27,1.87c-.84-.3-1.63-.6-2.38-.9l.26-1.86c.75.29,1.54.59,2.39.89" transform="translate(0.41 -0.37)"/><path class="cls-5" d="M1660.32,820.61l-.26,1.86c-.77-.3-1.48-.6-2.15-.91l.26-1.87c.67.31,1.38.61,2.15.92" transform="translate(0.41 -0.37)"/><path class="cls-6" d="M1658.17,819.69l-.26,1.87c-.77-.35-1.47-.69-2.11-1l.26-1.87c.64.35,1.34.7,2.11,1" transform="translate(0.41 -0.37)"/><path class="cls-15" d="M1656.06,818.65l-.26,1.87c-3.53-1.9-5.16-3.8-4.9-5.68l.27-1.87q-.4,2.84,4.89,5.68" transform="translate(0.41 -0.37)"/></g></g></g><polygon class="cls-28" points="1743.27 833.46 1743.01 835.33 1710.25 837.05 1710.51 835.19 1743.27 833.46"/><polygon class="cls-17" points="1710.51 835.19 1710.25 837.05 1701.6 834.4 1701.86 832.53 1710.51 835.19"/><polygon class="cls-19" points="1746.61 846.27 1746.35 848.14 1743.01 835.33 1743.27 833.46 1746.61 846.27"/><polygon class="cls-17" points="1755.86 849.11 1755.6 850.98 1746.35 848.14 1746.61 846.27 1755.86 849.11"/><polygon class="cls-27" points="1736.94 815.16 1746.15 817.99 1749.46 830.64 1781.79 828.93 1790.49 831.6 1751.1 833.42 1755.86 849.11 1746.61 846.27 1743.27 833.46 1710.51 835.19 1701.86 832.53 1741.64 830.68 1736.94 815.16"/></g><g class="cls-3"><polygon class="cls-17" points="1812.73 841.45 1812.46 843.32 1789.66 836.32 1789.92 834.45 1812.73 841.45"/><polygon class="cls-17" points="1843.46 850.89 1843.2 852.75 1820.39 845.75 1820.65 843.88 1843.46 850.89"/><polygon class="cls-18" points="1847.18 849 1846.92 850.87 1843.2 852.75 1843.46 850.89 1847.18 849"/><polygon class="cls-17" points="1789.79 859.53 1789.53 861.4 1781.6 858.96 1781.86 857.1 1789.79 859.53"/><polygon class="cls-18" points="1820.65 843.88 1820.39 845.75 1789.53 861.4 1789.79 859.53 1820.65 843.88"/><polygon class="cls-27" points="1793.64 832.57 1847.18 849 1843.46 850.89 1820.65 843.88 1789.79 859.53 1781.86 857.1 1812.73 841.45 1789.92 834.45 1793.64 832.57"/></g></svg>