<?xml version="1.0" encoding="utf-8"?>
<!-- Generator: Adobe Illustrator 22.0.1, SVG Export Plug-In . SVG Version: 6.00 Build 0)  -->
<svg version="1.1" id="レイヤー_1" xmlns="http://www.w3.org/2000/svg" xmlns:xlink="http://www.w3.org/1999/xlink" x="0px"
	 y="0px" viewBox="0 0 500 500" style="enable-background:new 0 0 500 500;" xml:space="preserve">
<style type="text/css">
	.st0{fill:#FF0000;}
</style>
<g>
</g>
<g>
	<path class="st0" d="M403.6,220.1c7.7-17.9,12-37.6,12-58.3C415.6,80.7,349.9,15,268.7,15S121.9,80.7,121.9,161.9
		c0,19.9,4,38.9,11.1,56.2c-66,1.3-119,55.2-119,121.5C14,406.6,68.4,461,135.5,461c37.6,0,71.3-17.1,93.6-44
		c23.5,44.8,70.5,75.4,124.6,75.4c77.7,0,140.7-63,140.7-140.7C494.4,291.6,456.7,240.3,403.6,220.1z M377.7,396.8
		c-4.5,3.9-9.7,5.9-15.5,5.9c-11.6,0-21.9-6.3-30.9-18.9c-9-12.6-14.3-30.1-16-52.3c-2.1-27.2-4.3-44.6-6.7-52.1
		c-2.4-7.5-6.4-11.3-12-11.3c-7.6,0-22.2,15.1-44,45.2c-21.8,30.1-37.5,54.3-47.2,72.4c-6,13.7-10.6,22.5-13.9,26.6
		c-3.3,4-7.3,6.1-12.1,6.1c-7.9,0-14.4-2-19.3-5.9c-5-3.9-7.4-9.4-7.4-16.6c0-3.5,1.8-14.5,5.3-33c13.3-69.9,24.2-144.3,32.6-223.2
		c2.1-19,6.1-32.1,12-39.4c5.9-7.2,11.4-10.8,16.3-10.8c6.9,0,12.9,2.7,18,8c5.1,5.3,7.6,12.8,7.6,22.3c0,14.6-1.8,31.4-5.3,50.4
		c-3.5,19-10.1,49.4-19.7,91c-5.9,25.1-10.1,45.1-12.7,60c21.6-40.5,40.3-68.1,56-82.7c15.7-14.6,31.5-22,47.6-22
		c11.1,0,20.3,3.8,27.6,11.4c7.4,7.6,12.7,27.4,16.1,59.5c1.4,15.2,3.3,27.5,5.5,36.9c2.2,9.4,4.7,17.7,7.4,24.9s6.6,14,11.7,20.4
		c3.9,5.1,5.9,10,5.9,14.6S382.2,392.8,377.7,396.8z"/>
</g>
<g>
</g>
<g>
</g>
<g>
</g>
<g>
</g>
<g>
</g>
<g>
</g>
<g>
</g>
<g>
</g>
<g>
</g>
<g>
</g>
<g>
</g>
<g>
</g>
<g>
</g>
<g>
</g>
<g>
</g>
</svg>
