<?xml version="1.0" encoding="utf-8"?>
<!-- Generator: Adobe Illustrator 22.0.1, SVG Export Plug-In . SVG Version: 6.00 Build 0)  -->
<svg version="1.1" id="レイヤー_1" xmlns="http://www.w3.org/2000/svg" xmlns:xlink="http://www.w3.org/1999/xlink" x="0px"
	 y="0px" viewBox="0 0 1200 600" style="enable-background:new 0 0 1200 600;" xml:space="preserve">
<style type="text/css">
	.st0{fill:#1A1A1A;}
</style>
<g>
	<path class="st0" d="M44.3,401.6c42.6-93.4,77.7-140.1,105.3-140.1c7.3,0,13.3,5,17.9,14.9c4.6,9.9,8.3,31.9,11.2,66.1
		c2.9,36.3,9.3,62.5,19.4,78.7c5.2,8.3,7.7,14.4,7.7,18.3c0,3.5-1.7,6.8-5.2,9.8c-3.4,3-7.1,4.5-11,4.5c-8.9,0-16.8-5.9-23.7-17.8
		c-6.9-11.9-11.3-32.8-13.2-62.7c-1.9-28.3-4-46.8-6.2-55.4c-2.2-8.7-5.8-13-10.8-13c-12,0-36.2,37.3-72.7,111.9
		c-10.9,22.3-18.9,36.9-24,43.7c-5.2,6.9-9.9,10.3-14.1,10.3c-5,0-9.3-1.8-12.7-5.3c-3.4-3.5-5.2-7.9-5.2-13c0-3.8,0.9-11.1,2.7-22
		C23.8,344,34.9,258.7,43.1,174.3c1.8-19.7,4.8-32.8,8.8-39.3c4.1-6.5,7.5-9.8,10.2-9.8c4.9,0,9.4,2.4,13.4,7.1c4,4.8,6,11.3,6,19.8
		c0,25-5.2,59.3-15.5,102.9c-5,21.6-10.4,49.1-16,82.4c-5.6,33.3-8.4,53.9-8.4,61.8c0,1.6,0.6,2.4,1.9,2.4H44.3z"/>
	<path class="st0" d="M273.5,375.2h8.7c14.8,0,25.9-0.5,33.1-1.6c3.5-0.5,7-0.7,10.5-0.7c1.5,0,4.6,0.9,9.3,2.8
		c4.7,1.9,7.4,3.4,8.3,4.7c0.9,1.3,1.3,2.9,1.3,5c0,3-0.6,5.1-1.8,6.3c-1.2,1.2-3.8,1.8-7.8,1.8c-1.8,0-4.2-0.5-7.4-1.6
		c-3.2-1.1-5.9-1.6-8-1.6c-0.9,0-3.8,0.2-8.7,0.6c-2.6,0.2-7.4,0-14.4-0.6c-5.3-0.5-9.3-0.7-12-0.7c-3.7,0-9.2,0.2-16.6,0.7
		c-7.4,0.5-13,0.7-16.9,0.7c-3.8,0-6.9-0.4-9.3-1.3c-2.4-0.8-3.5-2.8-3.5-5.8c0-1.3,0.5-2.8,1.6-4.6c1.1-1.7,4.7-3.1,10.9-4.1
		c6.2-1,10.7-1.5,13.4-1.5L273.5,375.2z"/>
	<path class="st0" d="M475,372.4c-2.6,0.1-8.8,11-18.7,32.7c-8.1,17.9-16.4,33.8-24.9,47.7c-8.5,14-14.7,21-18.7,21
		c-11.4,0-22-17.2-31.7-51.7c-9.7-34.4-14.6-62.2-14.6-83.2c0-6.8,1.7-12.5,5-17c3.4-4.5,7.3-6.9,12-7.3c0.6-0.1,1.8-0.1,3.5,0.1
		c1.7,0.1,3.7,1.7,6.1,4.6c2.4,2.9,3.6,5.8,3.6,8.6v0.6c0,1.1-0.5,5.8-1.5,14c-0.8,6.1-1.2,13.5-1.2,22.3c0,13.9,2.6,29.3,7.9,46.1
		c5.3,16.8,9.7,25.2,13.3,25.2c2.6,0,11.1-14.2,25.6-42.6c9.1-18,15.7-30.5,19.6-37.3l4.4-8.4c6.4-12.3,12.4-20.8,18.1-25.5
		c7.9,1,11.9,5,11.9,12.1c0,2.3-0.2,4.3-0.6,5.9c-0.4,1.6-0.6,3.6-0.6,5.9c0,17.3,4.4,35.4,13.3,54.3c8.8,18.9,15.2,28.4,18.9,28.4
		c2.8,0,7.1-9.9,13.1-29.7c8.1-26.9,15.6-47.1,22.5-60.6c6.9-13.5,11.9-21.5,15.1-24c3.2-2.5,6.9-3.8,10.9-3.8c2.3,0,4.3,1,5.9,3
		c1.6,2,2.4,4.2,2.4,6.5c0,3.5-0.5,5.8-1.5,7.2c-11.4,15.2-22.4,39-32.9,71.4c-8.9,27.8-15.1,45.2-18.4,52.3
		c-3.3,7.1-6.1,10.7-8.3,10.7c-11.1,0-20.3-4.1-27.4-12.4c-7.1-8.3-16.5-30.3-28.2-66C477.7,379.3,476.3,375.6,475,372.4z"/>
	<path class="st0" d="M655.4,472.3c-12.6,0-23-4.9-31.2-14.6c-8.2-9.7-12.3-21.7-12.3-36c0-24.1,8-47.9,24-71.3
		c16-23.4,35.1-35.1,57.4-35.1c14.7,0,26.7,5.7,35.9,17.2c9.2,11.5,13.8,25.2,13.8,41.1c0,24.3-9.5,46.8-28.4,67.6
		C695.6,461.9,675.9,472.3,655.4,472.3z M636.2,418c0,9.4,2,17.2,5.9,23.1c3.9,6,9.1,9,15.6,9c13.7,0,27.5-7.6,41.3-22.9
		c13.8-15.3,20.7-32.3,20.7-51c0-11.5-2.7-20.8-7.9-28c-5.3-7.1-12.4-10.7-21.4-10.7c-14.8,0-27.6,9.2-38.2,27.7
		C641.5,383.7,636.2,401.3,636.2,418z"/>
	<path class="st0" d="M803,409.6c0.9-1.7,2-4,3.3-7c6.3-14.6,12-26,17.3-34.3c5.3-8.3,11-16.2,17.3-23.8
		c6.3-7.6,12.1-13.3,17.3-17.2c5.2-3.9,9.9-6.7,14.2-8.2c4.2-1.5,8.3-2.3,12.3-2.3c8,0,14.6,2.5,19.6,7.4c5.1,4.9,7.6,10.6,7.6,17.2
		c0,2.9-0.9,5.5-2.7,7.9c-1.8,2.3-4.5,3.5-8.2,3.5c-3.9,0-7.4-1.7-10.6-5.2c-3.3-3.5-6.8-5.2-10.4-5.2c-9.6,0-22.9,11.8-39.8,35.3
		c-17,23.6-27.3,49.5-31,77.8c-0.9,7.3-2.7,12.1-5.3,14.4c-2.6,2.3-6.2,3.5-10.9,3.5c-4.5,0-7.8-3.4-9.8-10.2c-2-6.8-3-18.3-3-34.5
		c0-4.4,0.2-14.1,0.7-29c0.6-17.7,1.7-31.9,3.3-42.8c0.3-1.8,0.7-5.9,1.4-12.5c0.6-7.2,1.5-12.2,2.4-15c1-2.8,2.9-5.4,5.9-7.9
		c3-2.4,6.2-3.6,9.7-3.6c3.4,0,6,1.1,7.7,3.3c1.7,2.2,2.6,4.6,2.6,7.1c0,3.6-0.9,8.8-2.8,15.4c-2.1,7.4-3.4,12.5-3.7,15.3
		c-0.3,3.2-0.8,6.5-1.5,10c-0.9,4-1.8,14.6-2.8,31.7l-0.1,5.2V409.6z"/>
	<path class="st0" d="M946.1,399.8c1.2-1.6,9.4-9.1,24.7-22.6c14.5-12.8,24.6-22.1,30.3-27.9c21.3-21.6,36.6-32.4,45.9-32.4
		c7.2,0,10.8,3.5,10.8,10.5c0,7.9-3.5,13.8-10.6,17.5c-9.2,4.8-21.5,12.7-36.9,23.8c-15.4,11.1-23.1,18.9-23.1,23.5
		c0,1.9,5.4,8.9,16.3,21c10.9,12.1,20.3,21,28.2,26.8c7.9,5.7,15.6,8.6,23.1,8.6l4.6-0.1c3.2-0.2,4.8,1.3,4.8,4.3
		c0,4.1-2.5,8.3-7.6,12.6s-11.7,6.4-20,6.4c-5.3,0-10.8-1.9-16.2-5.7c-5.5-3.8-15.2-14-29.2-30.6c-11.1-13.7-18.1-21.9-20.9-24.6
		c-2.8-2.7-5.1-4-6.9-4c-1,0-4.2,2.4-9.7,7.3c-5.4,4.9-8.4,8.6-8.9,11.1c-0.5,2.5-0.8,12.2-0.8,28.9v6.6c0,3.5-1.6,6.5-4.8,9.3
		c-3.2,2.7-6.7,4.1-10.5,4.1c-3.9,0-6.9-1.1-9.1-3.4s-3.3-4.6-3.3-7.1c0-3.4,1.2-11.3,3.7-23.8c3.5-18,6.7-42.2,9.7-72.5
		c6.8-71.5,12.1-112,15.8-121.3c3.7-9.4,8.9-14.1,15.8-14.1c2.4,0,4.4,1.3,6,3.9c1.6,2.6,2.4,6,2.4,10.1c0,7.5-3.2,27.3-9.5,59.6
		C953.6,337.6,949,369.1,946.1,399.8z"/>
	<path class="st0" d="M1166.1,433.1c0-6.1-7.4-13-22.1-20.8c-18.7-9.7-31.4-17.5-37.9-23.3c-6.6-5.8-9.9-12.4-9.9-19.6
		c0-18.6,9.2-34,27.6-46.3c18.4-12.2,33.4-18.4,45-18.4c7.5,0,12.9,1.3,16.2,3.9c3.4,2.6,5,7.1,5,13.6c0,2.9-1.2,5.4-3.7,7.4
		c-2.4,2.1-4.4,3.1-5.7,3.1c-1,0-3-0.7-5.9-2.1c-3-1.3-4.9-2-5.8-2c-4.6,0-14,3.4-28.1,10.2c-14.1,6.8-21.1,14.5-21.1,23.1
		c0,5.2,2.5,10,7.5,14.2c5,4.3,13.9,9.5,26.8,15.6c10.4,5,18.7,10.4,24.9,16.2c6.2,5.7,9.3,12.5,9.3,20.3c0,14.3-9.7,25.5-29.2,33.6
		c-19.4,8.1-38,12.1-55.7,12.1c-14.9,0-22.4-5.1-22.4-15.4c0-3.6,1.7-6.2,5-7.8c3.4-1.7,6.8-2.5,10.2-2.5c1.4,0,4,0.5,7.9,1.4
		c3.8,0.9,6.3,1.4,7.5,1.4c10.2,0,21.2-1.7,32.9-5.2C1156.1,442.6,1163.3,438.3,1166.1,433.1z"/>
</g>
<g>
</g>
<g>
</g>
<g>
</g>
<g>
</g>
<g>
</g>
<g>
</g>
<g>
</g>
<g>
</g>
<g>
</g>
<g>
</g>
<g>
</g>
<g>
</g>
<g>
</g>
<g>
</g>
<g>
</g>
</svg>
